<mxfile host="app.diagrams.net" modified="2024-05-10T14:10:00.401Z" agent="Mozilla/5.0 (Windows NT 10.0; Win64; x64) AppleWebKit/537.36 (KHTML, like Gecko) Chrome/124.0.0.0 Safari/537.36" etag="80oAdZAmc4-qu8fFev-t" version="24.3.1" type="google">
  <diagram name="Pagina-1" id="QvIDnSWP9tFuG3CQ6xXL">
    <mxGraphModel grid="1" page="1" gridSize="10" guides="1" tooltips="1" connect="1" arrows="1" fold="1" pageScale="1" pageWidth="827" pageHeight="1169" math="0" shadow="0">
      <root>
        <mxCell id="0" />
        <mxCell id="1" parent="0" />
        <mxCell id="g_DSYGvWCxueevzJWpY1-1" value="auto_usate" style="shape=table;startSize=30;container=1;collapsible=1;childLayout=tableLayout;fixedRows=1;rowLines=0;fontStyle=1;align=center;resizeLast=1;html=1;fillColor=#ffe6cc;strokeColor=#d79b00;" vertex="1" parent="1">
          <mxGeometry x="150" y="270" width="316" height="420" as="geometry">
            <mxRectangle x="320" y="420" width="70" height="30" as="alternateBounds" />
          </mxGeometry>
        </mxCell>
        <mxCell id="g_DSYGvWCxueevzJWpY1-2" value="" style="shape=tableRow;horizontal=0;startSize=0;swimlaneHead=0;swimlaneBody=0;fillColor=none;collapsible=0;dropTarget=0;points=[[0,0.5],[1,0.5]];portConstraint=eastwest;top=0;left=0;right=0;bottom=1;" vertex="1" parent="g_DSYGvWCxueevzJWpY1-1">
          <mxGeometry y="30" width="316" height="30" as="geometry" />
        </mxCell>
        <mxCell id="g_DSYGvWCxueevzJWpY1-3" value="PK" style="shape=partialRectangle;connectable=0;fillColor=none;top=0;left=0;bottom=0;right=0;fontStyle=1;overflow=hidden;whiteSpace=wrap;html=1;" vertex="1" parent="g_DSYGvWCxueevzJWpY1-2">
          <mxGeometry width="30" height="30" as="geometry">
            <mxRectangle width="30" height="30" as="alternateBounds" />
          </mxGeometry>
        </mxCell>
        <mxCell id="g_DSYGvWCxueevzJWpY1-4" value="UniqueID AUTO_INCREMENT" style="shape=partialRectangle;connectable=0;fillColor=none;top=0;left=0;bottom=0;right=0;align=left;spacingLeft=6;fontStyle=5;overflow=hidden;whiteSpace=wrap;html=1;" vertex="1" parent="g_DSYGvWCxueevzJWpY1-2">
          <mxGeometry x="30" width="286" height="30" as="geometry">
            <mxRectangle width="286" height="30" as="alternateBounds" />
          </mxGeometry>
        </mxCell>
        <mxCell id="g_DSYGvWCxueevzJWpY1-5" value="" style="shape=tableRow;horizontal=0;startSize=0;swimlaneHead=0;swimlaneBody=0;fillColor=none;collapsible=0;dropTarget=0;points=[[0,0.5],[1,0.5]];portConstraint=eastwest;top=0;left=0;right=0;bottom=0;" vertex="1" parent="g_DSYGvWCxueevzJWpY1-1">
          <mxGeometry y="60" width="316" height="30" as="geometry" />
        </mxCell>
        <mxCell id="g_DSYGvWCxueevzJWpY1-6" value="" style="shape=partialRectangle;connectable=0;fillColor=none;top=0;left=0;bottom=0;right=0;editable=1;overflow=hidden;whiteSpace=wrap;html=1;" vertex="1" parent="g_DSYGvWCxueevzJWpY1-5">
          <mxGeometry width="30" height="30" as="geometry">
            <mxRectangle width="30" height="30" as="alternateBounds" />
          </mxGeometry>
        </mxCell>
        <mxCell id="g_DSYGvWCxueevzJWpY1-7" value="modello VARCHART(20) NOT NULL" style="shape=partialRectangle;connectable=0;fillColor=none;top=0;left=0;bottom=0;right=0;align=left;spacingLeft=6;overflow=hidden;whiteSpace=wrap;html=1;" vertex="1" parent="g_DSYGvWCxueevzJWpY1-5">
          <mxGeometry x="30" width="286" height="30" as="geometry">
            <mxRectangle width="286" height="30" as="alternateBounds" />
          </mxGeometry>
        </mxCell>
        <mxCell id="g_DSYGvWCxueevzJWpY1-8" value="" style="shape=tableRow;horizontal=0;startSize=0;swimlaneHead=0;swimlaneBody=0;fillColor=none;collapsible=0;dropTarget=0;points=[[0,0.5],[1,0.5]];portConstraint=eastwest;top=0;left=0;right=0;bottom=0;" vertex="1" parent="g_DSYGvWCxueevzJWpY1-1">
          <mxGeometry y="90" width="316" height="30" as="geometry" />
        </mxCell>
        <mxCell id="g_DSYGvWCxueevzJWpY1-9" value="" style="shape=partialRectangle;connectable=0;fillColor=none;top=0;left=0;bottom=0;right=0;editable=1;overflow=hidden;whiteSpace=wrap;html=1;" vertex="1" parent="g_DSYGvWCxueevzJWpY1-8">
          <mxGeometry width="30" height="30" as="geometry">
            <mxRectangle width="30" height="30" as="alternateBounds" />
          </mxGeometry>
        </mxCell>
        <mxCell id="g_DSYGvWCxueevzJWpY1-10" value="prezzo MEDIUMINT UNSIGNED NOT NUL" style="shape=partialRectangle;connectable=0;fillColor=none;top=0;left=0;bottom=0;right=0;align=left;spacingLeft=6;overflow=hidden;whiteSpace=wrap;html=1;" vertex="1" parent="g_DSYGvWCxueevzJWpY1-8">
          <mxGeometry x="30" width="286" height="30" as="geometry">
            <mxRectangle width="286" height="30" as="alternateBounds" />
          </mxGeometry>
        </mxCell>
        <mxCell id="g_DSYGvWCxueevzJWpY1-11" value="" style="shape=tableRow;horizontal=0;startSize=0;swimlaneHead=0;swimlaneBody=0;fillColor=none;collapsible=0;dropTarget=0;points=[[0,0.5],[1,0.5]];portConstraint=eastwest;top=0;left=0;right=0;bottom=0;" vertex="1" parent="g_DSYGvWCxueevzJWpY1-1">
          <mxGeometry y="120" width="316" height="30" as="geometry" />
        </mxCell>
        <mxCell id="g_DSYGvWCxueevzJWpY1-12" value="" style="shape=partialRectangle;connectable=0;fillColor=none;top=0;left=0;bottom=0;right=0;editable=1;overflow=hidden;whiteSpace=wrap;html=1;" vertex="1" parent="g_DSYGvWCxueevzJWpY1-11">
          <mxGeometry width="30" height="30" as="geometry">
            <mxRectangle width="30" height="30" as="alternateBounds" />
          </mxGeometry>
        </mxCell>
        <mxCell id="g_DSYGvWCxueevzJWpY1-13" value="anno_immatricolazione YEAR" style="shape=partialRectangle;connectable=0;fillColor=none;top=0;left=0;bottom=0;right=0;align=left;spacingLeft=6;overflow=hidden;whiteSpace=wrap;html=1;" vertex="1" parent="g_DSYGvWCxueevzJWpY1-11">
          <mxGeometry x="30" width="286" height="30" as="geometry">
            <mxRectangle width="286" height="30" as="alternateBounds" />
          </mxGeometry>
        </mxCell>
        <mxCell id="g_DSYGvWCxueevzJWpY1-26" value="" style="shape=tableRow;horizontal=0;startSize=0;swimlaneHead=0;swimlaneBody=0;fillColor=none;collapsible=0;dropTarget=0;points=[[0,0.5],[1,0.5]];portConstraint=eastwest;top=0;left=0;right=0;bottom=0;" vertex="1" parent="g_DSYGvWCxueevzJWpY1-1">
          <mxGeometry y="150" width="316" height="30" as="geometry" />
        </mxCell>
        <mxCell id="g_DSYGvWCxueevzJWpY1-27" value="" style="shape=partialRectangle;connectable=0;fillColor=none;top=0;left=0;bottom=0;right=0;editable=1;overflow=hidden;whiteSpace=wrap;html=1;" vertex="1" parent="g_DSYGvWCxueevzJWpY1-26">
          <mxGeometry width="30" height="30" as="geometry">
            <mxRectangle width="30" height="30" as="alternateBounds" />
          </mxGeometry>
        </mxCell>
        <mxCell id="g_DSYGvWCxueevzJWpY1-28" value="&lt;span style=&quot;color: rgb(0, 0, 0); font-family: Helvetica; font-size: 12px; font-style: normal; font-variant-ligatures: normal; font-variant-caps: normal; font-weight: 400; letter-spacing: normal; orphans: 2; text-indent: 0px; text-transform: none; widows: 2; word-spacing: 0px; -webkit-text-stroke-width: 0px; white-space: normal; background-color: rgb(251, 251, 251); text-decoration-thickness: initial; text-decoration-style: initial; text-decoration-color: initial; float: none; display: inline !important;&quot;&gt;colore VARCHART(20)&lt;/span&gt;&lt;div&gt;&lt;br&gt;&lt;/div&gt;" style="shape=partialRectangle;connectable=0;fillColor=none;top=0;left=0;bottom=0;right=0;align=left;spacingLeft=6;overflow=hidden;whiteSpace=wrap;html=1;verticalAlign=top;" vertex="1" parent="g_DSYGvWCxueevzJWpY1-26">
          <mxGeometry x="30" width="286" height="30" as="geometry">
            <mxRectangle width="286" height="30" as="alternateBounds" />
          </mxGeometry>
        </mxCell>
        <mxCell id="g_DSYGvWCxueevzJWpY1-29" value="" style="shape=tableRow;horizontal=0;startSize=0;swimlaneHead=0;swimlaneBody=0;fillColor=none;collapsible=0;dropTarget=0;points=[[0,0.5],[1,0.5]];portConstraint=eastwest;top=0;left=0;right=0;bottom=0;" vertex="1" parent="g_DSYGvWCxueevzJWpY1-1">
          <mxGeometry y="180" width="316" height="30" as="geometry" />
        </mxCell>
        <mxCell id="g_DSYGvWCxueevzJWpY1-30" value="" style="shape=partialRectangle;connectable=0;fillColor=none;top=0;left=0;bottom=0;right=0;editable=1;overflow=hidden;whiteSpace=wrap;html=1;" vertex="1" parent="g_DSYGvWCxueevzJWpY1-29">
          <mxGeometry width="30" height="30" as="geometry">
            <mxRectangle width="30" height="30" as="alternateBounds" />
          </mxGeometry>
        </mxCell>
        <mxCell id="g_DSYGvWCxueevzJWpY1-31" value="km MEDIUMINT UNSIGNED NOT NUL" style="shape=partialRectangle;connectable=0;fillColor=none;top=0;left=0;bottom=0;right=0;align=left;spacingLeft=6;overflow=hidden;whiteSpace=wrap;html=1;" vertex="1" parent="g_DSYGvWCxueevzJWpY1-29">
          <mxGeometry x="30" width="286" height="30" as="geometry">
            <mxRectangle width="286" height="30" as="alternateBounds" />
          </mxGeometry>
        </mxCell>
        <mxCell id="g_DSYGvWCxueevzJWpY1-32" value="" style="shape=tableRow;horizontal=0;startSize=0;swimlaneHead=0;swimlaneBody=0;fillColor=none;collapsible=0;dropTarget=0;points=[[0,0.5],[1,0.5]];portConstraint=eastwest;top=0;left=0;right=0;bottom=0;" vertex="1" parent="g_DSYGvWCxueevzJWpY1-1">
          <mxGeometry y="210" width="316" height="30" as="geometry" />
        </mxCell>
        <mxCell id="g_DSYGvWCxueevzJWpY1-33" value="" style="shape=partialRectangle;connectable=0;fillColor=none;top=0;left=0;bottom=0;right=0;editable=1;overflow=hidden;whiteSpace=wrap;html=1;" vertex="1" parent="g_DSYGvWCxueevzJWpY1-32">
          <mxGeometry width="30" height="30" as="geometry">
            <mxRectangle width="30" height="30" as="alternateBounds" />
          </mxGeometry>
        </mxCell>
        <mxCell id="g_DSYGvWCxueevzJWpY1-34" value="tipo_cambio VARCHART(10)" style="shape=partialRectangle;connectable=0;fillColor=none;top=0;left=0;bottom=0;right=0;align=left;spacingLeft=6;overflow=hidden;whiteSpace=wrap;html=1;" vertex="1" parent="g_DSYGvWCxueevzJWpY1-32">
          <mxGeometry x="30" width="286" height="30" as="geometry">
            <mxRectangle width="286" height="30" as="alternateBounds" />
          </mxGeometry>
        </mxCell>
        <mxCell id="g_DSYGvWCxueevzJWpY1-35" value="" style="shape=tableRow;horizontal=0;startSize=0;swimlaneHead=0;swimlaneBody=0;fillColor=none;collapsible=0;dropTarget=0;points=[[0,0.5],[1,0.5]];portConstraint=eastwest;top=0;left=0;right=0;bottom=0;" vertex="1" parent="g_DSYGvWCxueevzJWpY1-1">
          <mxGeometry y="240" width="316" height="30" as="geometry" />
        </mxCell>
        <mxCell id="g_DSYGvWCxueevzJWpY1-36" value="" style="shape=partialRectangle;connectable=0;fillColor=none;top=0;left=0;bottom=0;right=0;editable=1;overflow=hidden;whiteSpace=wrap;html=1;" vertex="1" parent="g_DSYGvWCxueevzJWpY1-35">
          <mxGeometry width="30" height="30" as="geometry">
            <mxRectangle width="30" height="30" as="alternateBounds" />
          </mxGeometry>
        </mxCell>
        <mxCell id="g_DSYGvWCxueevzJWpY1-37" value="cilindrata VARCHART(10)" style="shape=partialRectangle;connectable=0;fillColor=none;top=0;left=0;bottom=0;right=0;align=left;spacingLeft=6;overflow=hidden;whiteSpace=wrap;html=1;" vertex="1" parent="g_DSYGvWCxueevzJWpY1-35">
          <mxGeometry x="30" width="286" height="30" as="geometry">
            <mxRectangle width="286" height="30" as="alternateBounds" />
          </mxGeometry>
        </mxCell>
        <mxCell id="g_DSYGvWCxueevzJWpY1-38" value="" style="shape=tableRow;horizontal=0;startSize=0;swimlaneHead=0;swimlaneBody=0;fillColor=none;collapsible=0;dropTarget=0;points=[[0,0.5],[1,0.5]];portConstraint=eastwest;top=0;left=0;right=0;bottom=0;" vertex="1" parent="g_DSYGvWCxueevzJWpY1-1">
          <mxGeometry y="270" width="316" height="30" as="geometry" />
        </mxCell>
        <mxCell id="g_DSYGvWCxueevzJWpY1-39" value="" style="shape=partialRectangle;connectable=0;fillColor=none;top=0;left=0;bottom=0;right=0;editable=1;overflow=hidden;whiteSpace=wrap;html=1;" vertex="1" parent="g_DSYGvWCxueevzJWpY1-38">
          <mxGeometry width="30" height="30" as="geometry">
            <mxRectangle width="30" height="30" as="alternateBounds" />
          </mxGeometry>
        </mxCell>
        <mxCell id="g_DSYGvWCxueevzJWpY1-40" value="tipo_alimentazione VARCHART(20)" style="shape=partialRectangle;connectable=0;fillColor=none;top=0;left=0;bottom=0;right=0;align=left;spacingLeft=6;overflow=hidden;whiteSpace=wrap;html=1;" vertex="1" parent="g_DSYGvWCxueevzJWpY1-38">
          <mxGeometry x="30" width="286" height="30" as="geometry">
            <mxRectangle width="286" height="30" as="alternateBounds" />
          </mxGeometry>
        </mxCell>
        <mxCell id="g_DSYGvWCxueevzJWpY1-41" value="" style="shape=tableRow;horizontal=0;startSize=0;swimlaneHead=0;swimlaneBody=0;fillColor=none;collapsible=0;dropTarget=0;points=[[0,0.5],[1,0.5]];portConstraint=eastwest;top=0;left=0;right=0;bottom=0;" vertex="1" parent="g_DSYGvWCxueevzJWpY1-1">
          <mxGeometry y="300" width="316" height="30" as="geometry" />
        </mxCell>
        <mxCell id="g_DSYGvWCxueevzJWpY1-42" value="" style="shape=partialRectangle;connectable=0;fillColor=none;top=0;left=0;bottom=0;right=0;editable=1;overflow=hidden;whiteSpace=wrap;html=1;" vertex="1" parent="g_DSYGvWCxueevzJWpY1-41">
          <mxGeometry width="30" height="30" as="geometry">
            <mxRectangle width="30" height="30" as="alternateBounds" />
          </mxGeometry>
        </mxCell>
        <mxCell id="g_DSYGvWCxueevzJWpY1-43" value="casa_automobilistica VARCHART(20) NOT NULL" style="shape=partialRectangle;connectable=0;fillColor=none;top=0;left=0;bottom=0;right=0;align=left;spacingLeft=6;overflow=hidden;whiteSpace=wrap;html=1;" vertex="1" parent="g_DSYGvWCxueevzJWpY1-41">
          <mxGeometry x="30" width="286" height="30" as="geometry">
            <mxRectangle width="286" height="30" as="alternateBounds" />
          </mxGeometry>
        </mxCell>
        <mxCell id="g_DSYGvWCxueevzJWpY1-77" value="" style="shape=tableRow;horizontal=0;startSize=0;swimlaneHead=0;swimlaneBody=0;fillColor=none;collapsible=0;dropTarget=0;points=[[0,0.5],[1,0.5]];portConstraint=eastwest;top=0;left=0;right=0;bottom=0;" vertex="1" parent="g_DSYGvWCxueevzJWpY1-1">
          <mxGeometry y="330" width="316" height="30" as="geometry" />
        </mxCell>
        <mxCell id="g_DSYGvWCxueevzJWpY1-78" value="" style="shape=partialRectangle;connectable=0;fillColor=none;top=0;left=0;bottom=0;right=0;editable=1;overflow=hidden;whiteSpace=wrap;html=1;" vertex="1" parent="g_DSYGvWCxueevzJWpY1-77">
          <mxGeometry width="30" height="30" as="geometry">
            <mxRectangle width="30" height="30" as="alternateBounds" />
          </mxGeometry>
        </mxCell>
        <mxCell id="g_DSYGvWCxueevzJWpY1-79" value="" style="shape=partialRectangle;connectable=0;fillColor=none;top=0;left=0;bottom=0;right=0;align=left;spacingLeft=6;overflow=hidden;whiteSpace=wrap;html=1;" vertex="1" parent="g_DSYGvWCxueevzJWpY1-77">
          <mxGeometry x="30" width="286" height="30" as="geometry">
            <mxRectangle width="286" height="30" as="alternateBounds" />
          </mxGeometry>
        </mxCell>
        <mxCell id="g_DSYGvWCxueevzJWpY1-80" value="" style="shape=tableRow;horizontal=0;startSize=0;swimlaneHead=0;swimlaneBody=0;fillColor=none;collapsible=0;dropTarget=0;points=[[0,0.5],[1,0.5]];portConstraint=eastwest;top=0;left=0;right=0;bottom=0;" vertex="1" parent="g_DSYGvWCxueevzJWpY1-1">
          <mxGeometry y="360" width="316" height="30" as="geometry" />
        </mxCell>
        <mxCell id="g_DSYGvWCxueevzJWpY1-81" value="" style="shape=partialRectangle;connectable=0;fillColor=none;top=0;left=0;bottom=0;right=0;editable=1;overflow=hidden;whiteSpace=wrap;html=1;" vertex="1" parent="g_DSYGvWCxueevzJWpY1-80">
          <mxGeometry width="30" height="30" as="geometry">
            <mxRectangle width="30" height="30" as="alternateBounds" />
          </mxGeometry>
        </mxCell>
        <mxCell id="g_DSYGvWCxueevzJWpY1-82" value="" style="shape=partialRectangle;connectable=0;fillColor=none;top=0;left=0;bottom=0;right=0;align=left;spacingLeft=6;overflow=hidden;whiteSpace=wrap;html=1;" vertex="1" parent="g_DSYGvWCxueevzJWpY1-80">
          <mxGeometry x="30" width="286" height="30" as="geometry">
            <mxRectangle width="286" height="30" as="alternateBounds" />
          </mxGeometry>
        </mxCell>
        <mxCell id="g_DSYGvWCxueevzJWpY1-83" value="" style="shape=tableRow;horizontal=0;startSize=0;swimlaneHead=0;swimlaneBody=0;fillColor=none;collapsible=0;dropTarget=0;points=[[0,0.5],[1,0.5]];portConstraint=eastwest;top=0;left=0;right=0;bottom=0;" vertex="1" parent="g_DSYGvWCxueevzJWpY1-1">
          <mxGeometry y="390" width="316" height="30" as="geometry" />
        </mxCell>
        <mxCell id="g_DSYGvWCxueevzJWpY1-84" value="" style="shape=partialRectangle;connectable=0;fillColor=none;top=0;left=0;bottom=0;right=0;editable=1;overflow=hidden;whiteSpace=wrap;html=1;" vertex="1" parent="g_DSYGvWCxueevzJWpY1-83">
          <mxGeometry width="30" height="30" as="geometry">
            <mxRectangle width="30" height="30" as="alternateBounds" />
          </mxGeometry>
        </mxCell>
        <mxCell id="g_DSYGvWCxueevzJWpY1-85" value="" style="shape=partialRectangle;connectable=0;fillColor=none;top=0;left=0;bottom=0;right=0;align=left;spacingLeft=6;overflow=hidden;whiteSpace=wrap;html=1;" vertex="1" parent="g_DSYGvWCxueevzJWpY1-83">
          <mxGeometry x="30" width="286" height="30" as="geometry">
            <mxRectangle width="286" height="30" as="alternateBounds" />
          </mxGeometry>
        </mxCell>
      </root>
    </mxGraphModel>
  </diagram>
</mxfile>
